<svg width="199" height="33" viewBox="0 0 199 33" fill="none" xmlns="http://www.w3.org/2000/svg">
<path d="M58.8484 0.18107C63.9185 0.18107 67.9021 1.62966 71.1614 4.70791C74.4207 7.60508 76.0504 11.4076 76.0504 16.1155C76.0504 20.8234 74.4207 24.626 71.1614 27.7042C67.9021 30.6014 63.7374 32.2311 58.8484 32.2311H45.9922V0.18107H58.8484ZM58.8484 24.9881C61.3834 24.9881 63.5563 24.0828 65.367 22.4531C67.1778 20.6424 67.9021 18.6506 67.9021 16.1155C67.9021 13.5805 66.9967 11.5887 65.367 9.95904C63.5563 8.32938 61.3834 7.42401 58.8484 7.42401H53.9594V24.9881H58.8484Z" fill="#FF4164"/>
<path d="M114.076 32.05H106.109V16.1155L99.0467 26.9799H94.701L87.458 15.9345V32.05H79.6719V0.18107H85.4662L96.8739 17.202L108.1 0.18107H114.076V32.05Z" fill="#FF4164"/>
<path d="M168.218 0.18107C173.288 0.18107 177.271 1.62966 180.531 4.70791C183.79 7.60508 185.42 11.4076 185.42 16.1155C185.42 20.8234 183.79 24.626 180.531 27.7042C177.271 30.6014 173.107 32.2311 168.218 32.2311H155.361V0.18107H168.218ZM168.218 24.9881C170.753 24.9881 172.925 24.0828 174.736 22.4531C176.547 20.6424 177.271 18.6506 177.271 16.1155C177.271 13.5805 176.366 11.5887 174.736 9.95904C172.925 8.32938 170.753 7.42401 168.218 7.42401H163.329V24.9881H168.218Z" fill="#FF4164"/>
<path d="M8.69153 4.70791C8.69153 7.24294 6.69972 9.05367 4.34577 9.05367C1.81074 9.05367 0 7.06186 0 4.70791C0 2.35395 1.99181 0.36214 4.34577 0.36214C6.69972 0.181067 8.69153 2.17288 8.69153 4.70791Z" fill="#FF4164"/>
<path d="M199 27.7042C199 30.2393 197.008 32.05 194.654 32.05C192.3 32.05 190.309 30.0582 190.309 27.7042C190.309 25.3503 192.3 23.3585 194.654 23.3585C197.008 23.3585 199 25.1692 199 27.7042Z" fill="#FF4164"/>
<path d="M15.9341 30.9636L17.7449 26.6178L20.2799 19.9181L24.4446 9.23475L26.0742 13.2184L32.955 30.9636L33.3172 32.05H41.8276L28.2471 0H20.642L7.06152 32.05H15.572L15.9341 30.9636Z" fill="#FF4164"/>
<path d="M126.209 30.9636L133.27 12.8562L134.719 9.23475L138.703 19.9181L141.419 26.6178L143.592 32.05H151.921L138.522 0H130.916L117.336 32.05H125.846L126.209 31.1446V30.9636Z" fill="#FF4164"/>
</svg>
